<svg width="50" height="50" viewBox="0 0 50 50" fill="none" xmlns="http://www.w3.org/2000/svg">
<mask id="mask0_277_2" style="mask-type:alpha" maskUnits="userSpaceOnUse" x="0" y="0" width="50" height="50">
<rect width="50" height="50" fill="#D9D9D9"/>
</mask>
<g mask="url(#mask0_277_2)">
<path d="M41.5875 44.1738C37.1973 44.1738 32.8592 43.2172 28.5735 41.304C24.2874 39.3908 20.3834 36.6774 16.8615 33.1639C13.3393 29.6417 10.6217 25.7356 8.70889 21.4457C6.79569 17.1557 5.8391 12.8156 5.8391 8.42534C5.8391 7.68402 6.08476 7.06562 6.57608 6.57013C7.06739 6.07465 7.68371 5.8269 8.42503 5.8269H16.85C17.5271 5.8269 18.1065 6.02708 18.5881 6.42743C19.0697 6.82777 19.3702 7.34097 19.4896 7.96701L20.8313 14.9967C20.9337 15.6769 20.9184 16.2536 20.7854 16.7269C20.6521 17.2002 20.3967 17.613 20.0193 17.9654L14.8922 22.9701C15.5537 24.1635 16.3368 25.326 17.2417 26.4576C18.1469 27.5892 19.1558 28.6939 20.2683 29.7717C21.3033 30.8064 22.3697 31.7549 23.4672 32.617C24.5644 33.4792 25.7148 34.2589 26.9183 34.9561L31.9011 30.0108C32.3049 29.6149 32.8 29.3307 33.3865 29.1582C33.973 28.9852 34.5716 28.95 35.1823 29.0524L42.0334 30.4738C42.6941 30.6623 43.216 30.9825 43.599 31.4342C43.982 31.8859 44.1735 32.4248 44.1735 33.0509V41.5753C44.1735 42.3167 43.9257 42.9351 43.4302 43.4305C42.9348 43.926 42.3205 44.1738 41.5875 44.1738Z" fill="#D9D9D9"/>
</g>
</svg>
