<svg width="40" height="40" viewBox="0 0 40 40" fill="none" xmlns="http://www.w3.org/2000/svg">
<mask id="mask0_20_178" style="mask-type:alpha" maskUnits="userSpaceOnUse" x="0" y="0" width="40" height="40">
<rect width="40" height="40" fill="#D9D9D9"/>
</mask>
<g mask="url(#mask0_20_178)">
<path d="M6.78627 30.3389C5.73683 30.3389 4.84252 29.9693 4.10336 29.2301C3.36419 28.491 2.99461 27.5967 2.99461 26.5472V8.45304C2.99461 7.4036 3.36419 6.50929 4.10336 5.77013C4.84252 5.03096 5.73683 4.66138 6.78627 4.66138H33.2138C34.2632 4.66138 35.1575 5.03096 35.8967 5.77013C36.6359 6.50929 37.0054 7.4036 37.0054 8.45304V26.5472C37.0054 27.5967 36.6359 28.491 35.8967 29.2301C35.1575 29.9693 34.2632 30.3389 33.2138 30.3389H6.78627ZM1.35794 35.4885V32.0055H38.6421V35.4885H1.35794Z" fill="#421A22"/>
</g>
</svg>
