<svg width="50" height="50" viewBox="0 0 50 50" fill="none" xmlns="http://www.w3.org/2000/svg">
<mask id="mask0_20_184" style="mask-type:alpha" maskUnits="userSpaceOnUse" x="0" y="0" width="50" height="50">
<rect width="50" height="50" fill="#D9D9D9"/>
</mask>
<g mask="url(#mask0_20_184)">
<path d="M25 46.6926C20.8462 46.6926 17.4566 46.0345 14.8313 44.7182C12.2059 43.4022 10.8933 41.7031 10.8933 39.6208C10.8933 38.6628 11.1969 37.7718 11.8042 36.9479C12.4115 36.1239 13.262 35.4058 14.3558 34.7937L17.9735 38.34C17.5943 38.4873 17.1872 38.6623 16.7521 38.865C16.3171 39.0675 15.9662 39.311 15.6995 39.5958C16.2117 40.2242 17.3931 40.7742 19.2438 41.2458C21.0945 41.7173 23.0183 41.9531 25.0151 41.9531C27.0117 41.9531 28.9398 41.7173 30.7995 41.2458C32.6592 40.7742 33.8436 40.2242 34.3526 39.5958C34.0513 39.2763 33.6723 39.0154 33.2157 38.813C32.7591 38.6102 32.328 38.4352 31.9224 38.288L35.5006 34.6895C36.6638 35.3281 37.5556 36.0635 38.1761 36.8958C38.7966 37.7281 39.1068 38.6355 39.1068 39.6182C39.1068 41.7012 37.7941 43.401 35.1688 44.7176C32.5431 46.0343 29.1535 46.6926 25 46.6926ZM25.0771 34.101C28.4563 31.6242 31.0016 29.1265 32.7131 26.6077C34.4242 24.089 35.2797 21.5531 35.2797 18.9999C35.2797 15.5284 34.1674 12.9076 31.9427 11.1374C29.7181 9.36765 27.408 8.48275 25.0125 8.48275C22.607 8.48275 20.2922 9.36765 18.0683 11.1374C15.8447 12.9076 14.7329 15.5284 14.7329 18.9999C14.7329 21.285 15.571 23.6675 17.2474 26.1473C18.9238 28.6275 21.5337 31.2788 25.0771 34.101ZM25.0125 40.0067C19.9743 36.3102 16.2138 32.7202 13.7308 29.2369C11.2474 25.7536 10.0058 22.3413 10.0058 18.9999C10.0058 16.485 10.4613 14.2749 11.3724 12.3697C12.2835 10.4645 13.4537 8.87094 14.8829 7.589C16.312 6.30705 17.9198 5.3456 19.7063 4.70462C21.4924 4.06365 23.2603 3.74316 25.0099 3.74316C26.7596 3.74316 28.5271 4.06365 30.3125 4.70462C32.098 5.3456 33.7047 6.30705 35.1329 7.589C36.561 8.87094 37.7304 10.4645 38.6412 12.3697C39.5516 14.2749 40.0068 16.485 40.0068 18.9999C40.0068 22.3413 38.7662 25.7536 36.2849 29.2369C33.8037 32.7202 30.0462 36.3102 25.0125 40.0067ZM25.0078 22.9666C26.1901 22.9666 27.2016 22.5475 28.0422 21.7093C28.8832 20.8715 29.3037 19.8642 29.3037 18.6874C29.3037 17.5003 28.8835 16.4883 28.0433 15.6515C27.203 14.8147 26.1927 14.3963 25.0125 14.3963C23.8289 14.3963 22.8157 14.8147 21.973 15.6515C21.1302 16.4883 20.7089 17.4982 20.7089 18.6812C20.7089 19.8645 21.1297 20.8746 21.9714 21.7114C22.8134 22.5482 23.8256 22.9666 25.0078 22.9666Z" fill="#421A22"/>
</g>
</svg>
