<svg width="546" height="337" viewBox="0 0 546 337" fill="none" xmlns="http://www.w3.org/2000/svg">
<path d="M108.546 254.551C105.517 254.551 102.902 253.898 100.7 252.59C98.4973 251.254 96.7996 249.467 95.6067 247.23C94.4443 244.993 93.8632 242.509 93.8632 239.778C93.8632 237.048 94.4443 234.564 95.6067 232.327C96.7996 230.09 98.4973 228.318 100.7 227.01C102.902 225.674 105.517 225.006 108.546 225.006C110.84 225.006 112.904 225.398 114.74 226.182C116.575 226.938 118.135 227.983 119.42 229.32C120.704 230.656 121.668 232.21 122.31 233.983H118.686C117.921 232.21 116.713 230.801 115.061 229.756C113.409 228.71 111.329 228.187 108.821 228.187C106.374 228.187 104.278 228.71 102.535 229.756C100.822 230.772 99.522 232.152 98.6349 233.895C97.7479 235.639 97.3043 237.6 97.3043 239.778C97.3043 241.928 97.7479 243.889 98.6349 245.661C99.522 247.404 100.822 248.799 102.535 249.845C104.278 250.862 106.374 251.37 108.821 251.37C111.329 251.37 113.409 250.847 115.061 249.801C116.713 248.755 117.921 247.346 118.686 245.574H122.31C121.668 247.317 120.704 248.872 119.42 250.237C118.135 251.573 116.575 252.634 114.74 253.418C112.904 254.174 110.84 254.551 108.546 254.551ZM123.89 254.203L136.783 225.354H141.096L153.989 254.203H150.181L146.464 245.836H131.415L127.698 254.203H123.89ZM132.745 242.829H145.133L138.939 228.753L132.745 242.829ZM157.847 254.203V225.354H161.289V251.065H177.852V254.203H157.847ZM182.312 254.203V225.354H195.113C196.918 225.354 198.646 225.688 200.298 226.357C201.98 226.996 203.479 227.94 204.794 229.189C206.11 230.438 207.15 231.949 207.914 233.721C208.679 235.493 209.061 237.512 209.061 239.778C209.061 242.044 208.679 244.064 207.914 245.836C207.15 247.608 206.11 249.119 204.794 250.368C203.479 251.617 201.98 252.576 200.298 253.244C198.646 253.883 196.918 254.203 195.113 254.203H182.312ZM185.753 251.109H194.975C197.147 251.109 199.028 250.586 200.619 249.54C202.21 248.494 203.433 247.114 204.29 245.4C205.177 243.686 205.62 241.812 205.62 239.778C205.62 237.716 205.177 235.827 204.29 234.113C203.433 232.399 202.21 231.034 200.619 230.017C199.028 228.971 197.147 228.448 194.975 228.448H185.753V251.109ZM210.412 254.203L223.305 225.354H227.618L240.511 254.203H236.702L232.986 245.836H217.937L214.22 254.203H210.412ZM219.267 242.829H231.655L225.461 228.753L219.267 242.829ZM255.245 254.551C252.247 254.551 249.816 254.174 247.95 253.418C246.084 252.634 244.677 251.559 243.729 250.193C242.811 248.828 242.276 247.288 242.123 245.574H245.701C245.793 246.969 246.283 248.102 247.17 248.973C248.057 249.816 249.219 250.44 250.657 250.847C252.125 251.254 253.731 251.457 255.474 251.457C258.044 251.457 260.078 251.036 261.577 250.193C263.076 249.322 263.825 248.044 263.825 246.359C263.825 245.342 263.443 244.528 262.678 243.918C261.944 243.279 260.95 242.756 259.696 242.349C258.472 241.943 257.126 241.58 255.658 241.26C254.19 240.911 252.706 240.548 251.207 240.171C249.739 239.793 248.378 239.314 247.124 238.733C245.9 238.152 244.906 237.411 244.141 236.51C243.407 235.58 243.04 234.404 243.04 232.98C243.04 230.627 243.989 228.71 245.885 227.228C247.812 225.746 250.672 225.006 254.465 225.006C257.157 225.006 259.374 225.398 261.118 226.182C262.861 226.938 264.161 227.94 265.018 229.189C265.905 230.438 266.394 231.789 266.486 233.242H262.953C262.77 231.789 262.005 230.569 260.659 229.581C259.313 228.564 257.249 228.056 254.465 228.056C252.752 228.056 251.36 228.216 250.29 228.535C249.219 228.855 248.393 229.276 247.812 229.799C247.261 230.293 246.879 230.816 246.665 231.368C246.481 231.92 246.39 232.443 246.39 232.937C246.39 233.895 246.757 234.68 247.491 235.29C248.256 235.871 249.25 236.365 250.473 236.772C251.727 237.149 253.104 237.498 254.603 237.817C256.101 238.137 257.585 238.5 259.053 238.907C260.552 239.285 261.913 239.778 263.137 240.389C264.391 240.97 265.385 241.725 266.119 242.655C266.884 243.584 267.266 244.775 267.266 246.228C267.266 248.901 266.196 250.963 264.054 252.416C261.913 253.839 258.977 254.551 255.245 254.551ZM281.632 262.003V221.607H284.431V262.003H281.632ZM300.916 254.203V225.354H314.589C317.832 225.354 320.386 226.197 322.252 227.882C324.117 229.538 325.05 231.789 325.05 234.636C325.05 237.483 324.117 239.749 322.252 241.434C320.386 243.09 317.832 243.918 314.589 243.918H304.357V254.203H300.916ZM304.357 240.868H314.36C316.746 240.868 318.55 240.316 319.774 239.212C320.997 238.108 321.609 236.583 321.609 234.636C321.609 232.719 320.997 231.208 319.774 230.104C318.55 229 316.746 228.448 314.36 228.448H304.357V240.868ZM324.535 254.203L337.428 225.354H341.741L354.634 254.203H350.826L347.109 245.836H332.06L328.343 254.203H324.535ZM333.39 242.829H345.779L339.584 228.753L333.39 242.829ZM358.494 254.203V225.354H361.935V254.203H358.494ZM369.382 254.203V225.354H391.727V228.492H372.823V238.166H389.708V241.347H372.823V251.065H391.727V254.203H369.382ZM408.171 254.551C405.173 254.551 402.741 254.174 400.876 253.418C399.01 252.634 397.603 251.559 396.654 250.193C395.737 248.828 395.201 247.288 395.049 245.574H398.627C398.719 246.969 399.209 248.102 400.096 248.973C400.983 249.816 402.145 250.44 403.583 250.847C405.051 251.254 406.657 251.457 408.4 251.457C410.97 251.457 413.004 251.036 414.503 250.193C416.001 249.322 416.751 248.044 416.751 246.359C416.751 245.342 416.368 244.528 415.604 243.918C414.87 243.279 413.876 242.756 412.621 242.349C411.398 241.943 410.052 241.58 408.584 241.26C407.116 240.911 405.632 240.548 404.133 240.171C402.665 239.793 401.304 239.314 400.05 238.733C398.826 238.152 397.832 237.411 397.067 236.51C396.333 235.58 395.966 234.404 395.966 232.98C395.966 230.627 396.914 228.71 398.811 227.228C400.738 225.746 403.598 225.006 407.391 225.006C410.083 225.006 412.3 225.398 414.044 226.182C415.787 226.938 417.087 227.94 417.944 229.189C418.831 230.438 419.32 231.789 419.412 233.242H415.879C415.696 231.789 414.931 230.569 413.585 229.581C412.239 228.564 410.174 228.056 407.391 228.056C405.678 228.056 404.286 228.216 403.216 228.535C402.145 228.855 401.319 229.276 400.738 229.799C400.187 230.293 399.805 230.816 399.591 231.368C399.407 231.92 399.316 232.443 399.316 232.937C399.316 233.895 399.683 234.68 400.417 235.29C401.181 235.871 402.176 236.365 403.399 236.772C404.653 237.149 406.03 237.498 407.529 237.817C409.027 238.137 410.511 238.5 411.979 238.907C413.478 239.285 414.839 239.778 416.063 240.389C417.317 240.97 418.311 241.725 419.045 242.655C419.81 243.584 420.192 244.775 420.192 246.228C420.192 248.901 419.121 250.963 416.98 252.416C414.839 253.839 411.903 254.551 408.171 254.551Z" fill="#4C1920"/>
<path d="M15.7035 310.853L28.5964 282.005H32.9094L45.8023 310.853H41.9941L38.2776 302.487H23.2282L19.5117 310.853H15.7035ZM24.5588 299.48H36.947L30.7529 285.404L24.5588 299.48ZM58.6085 311.202C56.3756 311.202 54.4179 310.708 52.7356 309.72C51.0838 308.704 49.7991 307.338 48.8815 305.624C47.9638 303.91 47.505 302.022 47.505 299.959C47.505 297.867 47.9638 295.979 48.8815 294.294C49.7991 292.58 51.0838 291.229 52.7356 290.241C54.4179 289.224 56.3756 288.716 58.6085 288.716C60.505 288.716 62.1262 289.065 63.4721 289.762C64.8485 290.459 65.965 291.403 66.8215 292.594V280.349H70.2627V310.853H66.8215V307.367C65.965 308.529 64.8485 309.459 63.4721 310.156C62.1262 310.853 60.505 311.202 58.6085 311.202ZM59.0674 308.239C60.7803 308.239 62.2179 307.861 63.3803 307.106C64.5732 306.35 65.4756 305.348 66.0874 304.099C66.6991 302.821 67.005 301.441 67.005 299.959C67.005 298.448 66.6991 297.068 66.0874 295.819C65.4756 294.57 64.5732 293.568 63.3803 292.812C62.2179 292.057 60.7803 291.679 59.0674 291.679C57.385 291.679 55.9321 292.057 54.7085 292.812C53.485 293.568 52.5521 294.57 51.9097 295.819C51.2674 297.068 50.9462 298.448 50.9462 299.959C50.9462 301.441 51.2674 302.821 51.9097 304.099C52.5521 305.348 53.485 306.35 54.7085 307.106C55.9321 307.861 57.385 308.239 59.0674 308.239ZM82.4548 310.853L73.4619 289.065H77.2242L84.4736 307.367L91.6772 289.065H95.4395L86.4925 310.853H82.4548ZM108.172 311.202C105.847 311.202 103.828 310.708 102.115 309.72C100.402 308.704 99.0869 307.338 98.1692 305.624C97.2516 303.91 96.7927 302.022 96.7927 299.959C96.7927 297.867 97.2516 295.979 98.1692 294.294C99.0869 292.58 100.402 291.229 102.115 290.241C103.828 289.224 105.847 288.716 108.172 288.716C110.527 288.716 112.546 289.224 114.228 290.241C115.941 291.229 117.256 292.58 118.174 294.294C119.092 295.979 119.55 297.867 119.55 299.959C119.55 302.022 119.092 303.91 118.174 305.624C117.256 307.338 115.941 308.704 114.228 309.72C112.546 310.708 110.527 311.202 108.172 311.202ZM108.172 308.239C109.885 308.239 111.322 307.861 112.485 307.106C113.677 306.35 114.58 305.348 115.192 304.099C115.803 302.821 116.109 301.441 116.109 299.959C116.109 298.448 115.803 297.068 115.192 295.819C114.58 294.57 113.677 293.568 112.485 292.812C111.322 292.057 109.885 291.679 108.172 291.679C106.489 291.679 105.052 292.057 103.859 292.812C102.666 293.568 101.763 294.57 101.152 295.819C100.54 297.068 100.234 298.448 100.234 299.959C100.234 301.441 100.54 302.821 101.152 304.099C101.763 305.348 102.666 306.35 103.859 307.106C105.052 307.861 106.489 308.239 108.172 308.239ZM134.621 319.83C131.745 319.83 129.405 319.235 127.601 318.044C125.796 316.882 124.572 315.356 123.93 313.468H127.738C128.197 314.543 128.992 315.371 130.124 315.952C131.256 316.562 132.694 316.867 134.437 316.867C137.068 316.867 138.979 316.272 140.172 315.08C141.396 313.918 142.008 312.219 142.008 309.982V306.975C141.151 308.137 140.035 309.081 138.658 309.808C137.312 310.505 135.691 310.853 133.795 310.853C131.562 310.853 129.604 310.374 127.922 309.415C126.27 308.428 124.985 307.091 124.068 305.406C123.15 303.721 122.691 301.847 122.691 299.785C122.691 297.693 123.15 295.819 124.068 294.163C124.985 292.478 126.27 291.156 127.922 290.198C129.604 289.21 131.562 288.716 133.795 288.716C135.691 288.716 137.312 289.065 138.658 289.762C140.035 290.43 141.151 291.36 142.008 292.551V289.065H145.449V310.2C145.449 313.308 144.501 315.691 142.604 317.346C140.738 319.002 138.077 319.83 134.621 319.83ZM134.254 307.89C135.936 307.89 137.358 307.527 138.521 306.801C139.714 306.074 140.616 305.101 141.228 303.881C141.87 302.632 142.191 301.266 142.191 299.785C142.191 298.274 141.87 296.909 141.228 295.688C140.616 294.468 139.714 293.495 138.521 292.769C137.358 292.042 135.936 291.679 134.254 291.679C132.571 291.679 131.118 292.042 129.895 292.769C128.671 293.495 127.738 294.468 127.096 295.688C126.454 296.909 126.132 298.274 126.132 299.785C126.132 301.266 126.454 302.632 127.096 303.881C127.738 305.101 128.671 306.074 129.895 306.801C131.118 307.527 132.571 307.89 134.254 307.89ZM161.082 311.202C158.849 311.202 156.892 310.708 155.209 309.72C153.557 308.704 152.273 307.338 151.355 305.624C150.437 303.91 149.979 302.022 149.979 299.959C149.979 297.867 150.437 295.979 151.355 294.294C152.273 292.58 153.557 291.229 155.209 290.241C156.892 289.224 158.849 288.716 161.082 288.716C162.979 288.716 164.6 289.065 165.946 289.762C167.322 290.459 168.439 291.403 169.295 292.594V289.065H172.736V310.853H169.295V307.367C168.439 308.529 167.322 309.459 165.946 310.156C164.6 310.853 162.979 311.202 161.082 311.202ZM161.541 308.239C163.254 308.239 164.692 307.861 165.854 307.106C167.047 306.35 167.949 305.348 168.561 304.099C169.173 302.821 169.479 301.441 169.479 299.959C169.479 298.448 169.173 297.068 168.561 295.819C167.949 294.57 167.047 293.568 165.854 292.812C164.692 292.057 163.254 291.679 161.541 291.679C159.859 291.679 158.406 292.057 157.182 292.812C155.959 293.568 155.026 294.57 154.383 295.819C153.741 297.068 153.42 298.448 153.42 299.959C153.42 301.441 153.741 302.821 154.383 304.099C155.026 305.348 155.959 306.35 157.182 307.106C158.406 307.861 159.859 308.239 161.541 308.239ZM188.37 311.202C186.137 311.202 184.179 310.708 182.497 309.72C180.845 308.704 179.561 307.338 178.643 305.624C177.725 303.91 177.266 302.022 177.266 299.959C177.266 297.867 177.725 295.979 178.643 294.294C179.561 292.58 180.845 291.229 182.497 290.241C184.179 289.224 186.137 288.716 188.37 288.716C190.266 288.716 191.888 289.065 193.233 289.762C194.61 290.459 195.726 291.403 196.583 292.594V280.349H200.024V310.853H196.583V307.367C195.726 308.529 194.61 309.459 193.233 310.156C191.888 310.853 190.266 311.202 188.37 311.202ZM188.829 308.239C190.542 308.239 191.979 307.861 193.142 307.106C194.335 306.35 195.237 305.348 195.849 304.099C196.461 302.821 196.766 301.441 196.766 299.959C196.766 298.448 196.461 297.068 195.849 295.819C195.237 294.57 194.335 293.568 193.142 292.812C191.979 292.057 190.542 291.679 188.829 291.679C187.146 291.679 185.693 292.057 184.47 292.812C183.246 293.568 182.313 294.57 181.671 295.819C181.029 297.068 180.708 298.448 180.708 299.959C180.708 301.441 181.029 302.821 181.671 304.099C182.313 305.348 183.246 306.35 184.47 307.106C185.693 307.861 187.146 308.239 188.829 308.239ZM215.933 311.202C213.608 311.202 211.589 310.708 209.877 309.72C208.164 308.704 206.848 307.338 205.931 305.624C205.013 303.91 204.554 302.022 204.554 299.959C204.554 297.867 205.013 295.979 205.931 294.294C206.848 292.58 208.164 291.229 209.877 290.241C211.589 289.224 213.608 288.716 215.933 288.716C218.288 288.716 220.307 289.224 221.989 290.241C223.702 291.229 225.018 292.58 225.935 294.294C226.853 295.979 227.312 297.867 227.312 299.959C227.312 302.022 226.853 303.91 225.935 305.624C225.018 307.338 223.702 308.704 221.989 309.72C220.307 310.708 218.288 311.202 215.933 311.202ZM215.933 308.239C217.646 308.239 219.084 307.861 220.246 307.106C221.439 306.35 222.341 305.348 222.953 304.099C223.565 302.821 223.871 301.441 223.871 299.959C223.871 298.448 223.565 297.068 222.953 295.819C222.341 294.57 221.439 293.568 220.246 292.812C219.084 292.057 217.646 291.679 215.933 291.679C214.251 291.679 212.813 292.057 211.62 292.812C210.427 293.568 209.525 294.57 208.913 295.819C208.301 297.068 207.995 298.448 207.995 299.959C207.995 301.441 208.301 302.821 208.913 304.099C209.525 305.348 210.427 306.35 211.62 307.106C212.813 307.861 214.251 308.239 215.933 308.239ZM240.225 311.202C238.114 311.202 236.325 310.868 234.856 310.2C233.419 309.532 232.318 308.66 231.553 307.585C230.788 306.481 230.36 305.29 230.268 304.012H233.847C233.939 304.738 234.199 305.45 234.627 306.147C235.086 306.815 235.774 307.367 236.692 307.803C237.609 308.21 238.802 308.413 240.271 308.413C240.729 308.413 241.295 308.37 241.968 308.282C242.641 308.195 243.283 308.035 243.895 307.803C244.538 307.571 245.073 307.222 245.501 306.757C245.929 306.292 246.143 305.697 246.143 304.97C246.143 304.07 245.776 303.373 245.042 302.879C244.308 302.385 243.36 302.007 242.198 301.746C241.035 301.455 239.796 301.179 238.481 300.918C237.196 300.656 235.973 300.322 234.811 299.915C233.648 299.48 232.7 298.884 231.966 298.129C231.232 297.344 230.865 296.284 230.865 294.948C230.865 292.972 231.614 291.447 233.113 290.372C234.642 289.268 236.891 288.716 239.858 288.716C241.876 288.716 243.513 289.021 244.767 289.631C246.052 290.212 247.015 290.968 247.658 291.897C248.331 292.827 248.728 293.829 248.851 294.904H245.363C245.241 293.974 244.752 293.175 243.895 292.507C243.069 291.839 241.693 291.505 239.766 291.505C236.126 291.505 234.306 292.551 234.306 294.643C234.306 295.514 234.673 296.182 235.407 296.647C236.141 297.112 237.089 297.49 238.252 297.78C239.414 298.042 240.638 298.303 241.922 298.565C243.238 298.797 244.476 299.131 245.639 299.567C246.801 300.003 247.749 300.627 248.483 301.441C249.218 302.225 249.585 303.3 249.585 304.665C249.585 306.786 248.728 308.413 247.015 309.546C245.333 310.65 243.069 311.202 240.225 311.202ZM260.933 310.853L273.826 282.005H278.139L291.032 310.853H287.223L283.507 302.487H268.458L264.741 310.853H260.933ZM269.788 299.48H282.176L275.982 285.404L269.788 299.48ZM302.507 311.202C300.396 311.202 298.607 310.868 297.139 310.2C295.701 309.532 294.6 308.66 293.835 307.585C293.07 306.481 292.642 305.29 292.55 304.012H296.129C296.221 304.738 296.481 305.45 296.909 306.147C297.368 306.815 298.056 307.367 298.974 307.803C299.892 308.21 301.085 308.413 302.553 308.413C303.012 308.413 303.577 308.37 304.25 308.282C304.923 308.195 305.566 308.035 306.177 307.803C306.82 307.571 307.355 307.222 307.783 306.757C308.212 306.292 308.426 305.697 308.426 304.97C308.426 304.07 308.059 303.373 307.325 302.879C306.59 302.385 305.642 302.007 304.48 301.746C303.317 301.455 302.079 301.179 300.763 300.918C299.479 300.656 298.255 300.322 297.093 299.915C295.93 299.48 294.982 298.884 294.248 298.129C293.514 297.344 293.147 296.284 293.147 294.948C293.147 292.972 293.896 291.447 295.395 290.372C296.925 289.268 299.173 288.716 302.14 288.716C304.159 288.716 305.795 289.021 307.049 289.631C308.334 290.212 309.297 290.968 309.94 291.897C310.613 292.827 311.01 293.829 311.133 294.904H307.646C307.523 293.974 307.034 293.175 306.177 292.507C305.352 291.839 303.975 291.505 302.048 291.505C298.408 291.505 296.588 292.551 296.588 294.643C296.588 295.514 296.955 296.182 297.689 296.647C298.423 297.112 299.372 297.49 300.534 297.78C301.696 298.042 302.92 298.303 304.205 298.565C305.52 298.797 306.759 299.131 307.921 299.567C309.083 300.003 310.032 300.627 310.766 301.441C311.5 302.225 311.867 303.3 311.867 304.665C311.867 306.786 311.01 308.413 309.297 309.546C307.615 310.65 305.352 311.202 302.507 311.202ZM324.641 311.202C322.53 311.202 320.741 310.868 319.272 310.2C317.835 309.532 316.733 308.66 315.969 307.585C315.204 306.481 314.776 305.29 314.684 304.012H318.263C318.355 304.738 318.615 305.45 319.043 306.147C319.502 306.815 320.19 307.367 321.108 307.803C322.025 308.21 323.218 308.413 324.686 308.413C325.145 308.413 325.711 308.37 326.384 308.282C327.057 308.195 327.699 308.035 328.311 307.803C328.953 307.571 329.489 307.222 329.917 306.757C330.345 306.292 330.559 305.697 330.559 304.97C330.559 304.07 330.192 303.373 329.458 302.879C328.724 302.385 327.776 302.007 326.613 301.746C325.451 301.455 324.212 301.179 322.897 300.918C321.612 300.656 320.389 300.322 319.226 299.915C318.064 299.48 317.116 298.884 316.382 298.129C315.648 297.344 315.281 296.284 315.281 294.948C315.281 292.972 316.03 291.447 317.529 290.372C319.058 289.268 321.306 288.716 324.273 288.716C326.292 288.716 327.929 289.021 329.183 289.631C330.468 290.212 331.431 290.968 332.073 291.897C332.746 292.827 333.144 293.829 333.266 294.904H329.779C329.657 293.974 329.168 293.175 328.311 292.507C327.485 291.839 326.109 291.505 324.182 291.505C320.542 291.505 318.722 292.551 318.722 294.643C318.722 295.514 319.089 296.182 319.823 296.647C320.557 297.112 321.505 297.49 322.668 297.78C323.83 298.042 325.053 298.303 326.338 298.565C327.653 298.797 328.892 299.131 330.055 299.567C331.217 300.003 332.165 300.627 332.899 301.441C333.633 302.225 334.001 303.3 334.001 304.665C334.001 306.786 333.144 308.413 331.431 309.546C329.749 310.65 327.485 311.202 324.641 311.202ZM348.382 311.202C346.057 311.202 344.038 310.708 342.325 309.72C340.612 308.704 339.297 307.338 338.379 305.624C337.462 303.91 337.003 302.022 337.003 299.959C337.003 297.867 337.462 295.979 338.379 294.294C339.297 292.58 340.612 291.229 342.325 290.241C344.038 289.224 346.057 288.716 348.382 288.716C350.737 288.716 352.756 289.224 354.438 290.241C356.151 291.229 357.466 292.58 358.384 294.294C359.302 295.979 359.76 297.867 359.76 299.959C359.76 302.022 359.302 303.91 358.384 305.624C357.466 307.338 356.151 308.704 354.438 309.72C352.756 310.708 350.737 311.202 348.382 311.202ZM348.382 308.239C350.095 308.239 351.532 307.861 352.695 307.106C353.887 306.35 354.79 305.348 355.402 304.099C356.013 302.821 356.319 301.441 356.319 299.959C356.319 298.448 356.013 297.068 355.402 295.819C354.79 294.57 353.887 293.568 352.695 292.812C351.532 292.057 350.095 291.679 348.382 291.679C346.699 291.679 345.262 292.057 344.069 292.812C342.876 293.568 341.973 294.57 341.362 295.819C340.75 297.068 340.444 298.448 340.444 299.959C340.444 301.441 340.75 302.821 341.362 304.099C341.973 305.348 342.876 306.35 344.069 307.106C345.262 307.861 346.699 308.239 348.382 308.239ZM374.189 311.202C371.895 311.202 369.906 310.708 368.224 309.72C366.542 308.704 365.227 307.338 364.278 305.624C363.361 303.91 362.902 302.022 362.902 299.959C362.902 297.867 363.361 295.979 364.278 294.294C365.227 292.58 366.542 291.229 368.224 290.241C369.906 289.224 371.895 288.716 374.189 288.716C376.911 288.716 379.221 289.384 381.117 290.721C383.044 292.057 384.344 293.786 385.017 295.906H381.301C380.781 294.657 379.939 293.64 378.777 292.856C377.645 292.071 376.269 291.679 374.648 291.679C372.965 291.679 371.497 292.057 370.243 292.812C368.989 293.568 368.025 294.57 367.352 295.819C366.679 297.068 366.343 298.448 366.343 299.959C366.343 301.441 366.679 302.821 367.352 304.099C368.025 305.348 368.989 306.35 370.243 307.106C371.497 307.861 372.965 308.239 374.648 308.239C376.269 308.239 377.645 307.847 378.777 307.062C379.939 306.278 380.781 305.261 381.301 304.012H385.017C384.344 306.133 383.044 307.861 381.117 309.197C379.221 310.534 376.911 311.202 374.189 311.202ZM389.143 285.404V281.134H392.86V285.404H389.143ZM389.281 310.853V289.065H392.722V310.853H389.281ZM408.371 311.202C406.138 311.202 404.181 310.708 402.498 309.72C400.846 308.704 399.562 307.338 398.644 305.624C397.727 303.91 397.268 302.022 397.268 299.959C397.268 297.867 397.727 295.979 398.644 294.294C399.562 292.58 400.846 291.229 402.498 290.241C404.181 289.224 406.138 288.716 408.371 288.716C410.268 288.716 411.889 289.065 413.235 289.762C414.611 290.459 415.728 291.403 416.584 292.594V289.065H420.025V310.853H416.584V307.367C415.728 308.529 414.611 309.459 413.235 310.156C411.889 310.853 410.268 311.202 408.371 311.202ZM408.83 308.239C410.543 308.239 411.981 307.861 413.143 307.106C414.336 306.35 415.238 305.348 415.85 304.099C416.462 302.821 416.768 301.441 416.768 299.959C416.768 298.448 416.462 297.068 415.85 295.819C415.238 294.57 414.336 293.568 413.143 292.812C411.981 292.057 410.543 291.679 408.83 291.679C407.148 291.679 405.695 292.057 404.471 292.812C403.248 293.568 402.315 294.57 401.672 295.819C401.03 297.068 400.709 298.448 400.709 299.959C400.709 301.441 401.03 302.821 401.672 304.099C402.315 305.348 403.248 306.35 404.471 307.106C405.695 307.861 407.148 308.239 408.83 308.239ZM435.659 311.202C433.426 311.202 431.468 310.708 429.786 309.72C428.134 308.704 426.85 307.338 425.932 305.624C425.014 303.91 424.555 302.022 424.555 299.959C424.555 297.867 425.014 295.979 425.932 294.294C426.85 292.58 428.134 291.229 429.786 290.241C431.468 289.224 433.426 288.716 435.659 288.716C437.555 288.716 439.177 289.065 440.523 289.762C441.899 290.459 443.015 291.403 443.872 292.594V280.349H447.313V310.853H443.872V307.367C443.015 308.529 441.899 309.459 440.523 310.156C439.177 310.853 437.555 311.202 435.659 311.202ZM436.118 308.239C437.831 308.239 439.268 307.861 440.431 307.106C441.624 306.35 442.526 305.348 443.138 304.099C443.75 302.821 444.055 301.441 444.055 299.959C444.055 298.448 443.75 297.068 443.138 295.819C442.526 294.57 441.624 293.568 440.431 292.812C439.268 292.057 437.831 291.679 436.118 291.679C434.435 291.679 432.982 292.057 431.759 292.812C430.535 293.568 429.603 294.57 428.96 295.819C428.318 297.068 427.997 298.448 427.997 299.959C427.997 301.441 428.318 302.821 428.96 304.099C429.603 305.348 430.535 306.35 431.759 307.106C432.982 307.861 434.435 308.239 436.118 308.239ZM463.222 311.202C460.897 311.202 458.878 310.708 457.166 309.72C455.453 308.704 454.137 307.338 453.22 305.624C452.302 303.91 451.843 302.022 451.843 299.959C451.843 297.867 452.302 295.979 453.22 294.294C454.137 292.58 455.453 291.229 457.166 290.241C458.878 289.224 460.897 288.716 463.222 288.716C465.577 288.716 467.596 289.224 469.279 290.241C470.991 291.229 472.307 292.58 473.224 294.294C474.142 295.979 474.601 297.867 474.601 299.959C474.601 302.022 474.142 303.91 473.224 305.624C472.307 307.338 470.991 308.704 469.279 309.72C467.596 310.708 465.577 311.202 463.222 311.202ZM463.222 308.239C464.935 308.239 466.373 307.861 467.535 307.106C468.728 306.35 469.63 305.348 470.242 304.099C470.854 302.821 471.16 301.441 471.16 299.959C471.16 298.448 470.854 297.068 470.242 295.819C469.63 294.57 468.728 293.568 467.535 292.812C466.373 292.057 464.935 291.679 463.222 291.679C461.54 291.679 460.102 292.057 458.909 292.812C457.716 293.568 456.814 294.57 456.202 295.819C455.59 297.068 455.284 298.448 455.284 299.959C455.284 301.441 455.59 302.821 456.202 304.099C456.814 305.348 457.716 306.35 458.909 307.106C460.102 307.861 461.54 308.239 463.222 308.239ZM487.515 311.202C485.405 311.202 483.615 310.868 482.147 310.2C480.709 309.532 479.608 308.66 478.843 307.585C478.079 306.481 477.651 305.29 477.559 304.012H481.138C481.229 304.738 481.489 305.45 481.918 306.147C482.376 306.815 483.065 307.367 483.982 307.803C484.9 308.21 486.093 308.413 487.561 308.413C488.02 308.413 488.586 308.37 489.259 308.282C489.932 308.195 490.574 308.035 491.186 307.803C491.828 307.571 492.363 307.222 492.792 306.757C493.22 306.292 493.434 305.697 493.434 304.97C493.434 304.07 493.067 303.373 492.333 302.879C491.599 302.385 490.65 302.007 489.488 301.746C488.326 301.455 487.087 301.179 485.772 300.918C484.487 300.656 483.263 300.322 482.101 299.915C480.939 299.48 479.99 298.884 479.256 298.129C478.522 297.344 478.155 296.284 478.155 294.948C478.155 292.972 478.905 291.447 480.403 290.372C481.933 289.268 484.181 288.716 487.148 288.716C489.167 288.716 490.803 289.021 492.058 289.631C493.342 290.212 494.306 290.968 494.948 291.897C495.621 292.827 496.019 293.829 496.141 294.904H492.654C492.532 293.974 492.042 293.175 491.186 292.507C490.36 291.839 488.983 291.505 487.056 291.505C483.416 291.505 481.596 292.551 481.596 294.643C481.596 295.514 481.963 296.182 482.698 296.647C483.432 297.112 484.38 297.49 485.542 297.78C486.705 298.042 487.928 298.303 489.213 298.565C490.528 298.797 491.767 299.131 492.929 299.567C494.092 300.003 495.04 300.627 495.774 301.441C496.508 302.225 496.875 303.3 496.875 304.665C496.875 306.786 496.019 308.413 494.306 309.546C492.623 310.65 490.36 311.202 487.515 311.202Z" fill="#464A4B"/>
<path d="M15.2939 270.729H499.365" stroke="#343434" stroke-width="0.976959"/>
<path d="M248.566 142.013C246.708 141.784 244.028 141.39 240.781 140.675C211.885 136.07 188.047 109.4 188.511 75.0592C188.911 39.4052 208.827 16.7457 238.119 11.5892C257.244 8.96896 271.957 9.7116 286.365 21.5432C288.964 21.0965 291.282 20.1121 292.74 18.3747C276.395 3.96135 258.599 1.19744 236.988 4.33967C204.375 10.1915 182.226 37.7167 181.848 74.9103C181.042 119.497 216.029 151.669 254.197 148.666C257.608 145.662 257.897 144.267 257.551 143.547C256.943 142.281 254.144 142.7 248.566 142.013Z" stroke="#49141B" stroke-width="1.30261" stroke-miterlimit="10"/>
<path d="M245.825 141.756C243.973 141.484 241.306 141.03 238.076 140.242C209.303 134.986 186.14 107.785 187.463 73.4648C188.755 37.8298 209.233 15.6264 238.646 11.1327C257.831 8.94492 272.521 10.0195 286.629 22.173C289.238 21.7851 291.581 20.8534 293.081 19.1492C277.102 4.37107 259.379 1.20617 237.697 3.85964C204.947 8.97358 182.115 35.991 180.806 73.1656C178.885 117.722 213.056 150.674 251.29 148.534C254.774 145.609 255.098 144.22 254.771 143.492C254.193 142.212 251.385 142.568 245.825 141.756Z" fill="#49141B"/>
<path d="M261.63 141.94H311.411C348.041 141.94 363.538 119.352 363.069 97.0152C362.833 72.69 343.579 48.3666 311.411 48.3666H261.63V141.94ZM261.63 149.634V195.303C261.63 200.765 253.882 200.765 253.882 195.553V44.8916C253.882 42.4097 255.76 40.6721 257.873 40.6721H311.176C350.859 40.6721 371.051 68.9681 371.051 97.0152C371.051 125.807 351.563 149.634 311.411 149.634H261.63Z" stroke="#404143" stroke-width="1.30261" stroke-miterlimit="10"/>
<path d="M261.63 140.487H311.411C348.041 140.487 363.54 117.9 363.069 95.5626C362.833 71.2375 343.579 46.914 311.411 46.914H261.63V140.487ZM261.63 148.181V193.851C261.63 199.312 253.882 199.312 253.882 194.1V43.439C253.882 40.957 255.76 39.2195 257.873 39.2195H311.176C350.859 39.2195 371.051 67.5155 371.051 95.5626C371.051 124.354 351.563 148.181 311.411 148.181H261.63Z" fill="#404143"/>
</svg>
