<svg width="56" height="56" viewBox="0 0 56 56" fill="none" xmlns="http://www.w3.org/2000/svg">
<circle cx="28" cy="28" r="28" fill="white"/>
<path fill-rule="evenodd" clip-rule="evenodd" d="M25.9333 3.06318C21.0179 3.4842 16.4791 5.26656 12.5218 8.32968C11.5364 9.0924 9.26553 11.3419 8.50796 12.3057C5.63547 15.9601 3.93402 19.8784 3.24189 24.4326C2.84384 27.0517 2.97113 30.6669 3.55479 33.3212C4.37011 37.0292 6.07878 40.6212 8.46777 43.6498C9.20896 44.5894 11.3842 46.7718 12.3124 47.507C17.7583 51.8209 24.3885 53.6691 31.2424 52.7838C35.6296 52.2171 39.9559 50.3644 43.5388 47.518C44.4957 46.7578 46.6704 44.5794 47.4004 43.6498C50.2333 40.0423 52.079 35.7029 52.6542 31.2979C52.7371 30.6631 52.8049 29.9065 52.8049 29.6167C52.8049 29.3267 52.8488 29.0624 52.9025 29.0291C52.958 28.9948 53 28.5046 53 27.8929C53 27.2006 52.9653 26.8386 52.9025 26.8776C52.842 26.915 52.8049 26.7335 52.8049 26.3993C52.8049 26.1031 52.7371 25.3414 52.6542 24.7066C51.2981 14.3205 43.5105 5.83584 33.2486 3.5641C31.139 3.09702 28.0259 2.88392 25.9333 3.06318ZM26.4697 12.3028C23.1886 12.8578 20.6316 14.1836 18.2722 16.5535C16.4693 18.3644 15.3814 20.1206 14.6337 22.4278C14.0936 24.0941 13.9355 25.1636 13.94 27.1221C13.9456 29.5807 14.3236 31.2668 15.3674 33.4882L15.8543 34.5243L14.818 38.3168C14.248 40.4028 13.8002 42.128 13.8229 42.1508C13.8455 42.1736 15.6092 41.7337 17.742 41.1732L21.6199 40.1543L22.411 40.5196C28.2212 43.2026 34.8221 42.0292 39.2723 37.5224C41.7812 34.9816 43.1977 31.9476 43.5534 28.3527C43.7774 26.0879 43.3767 23.4651 42.4769 21.3059C40.5348 16.6453 36.2374 13.2014 31.3101 12.3568C29.9713 12.1273 27.66 12.1015 26.4697 12.3028ZM26.7136 14.8579C22.8355 15.5466 19.5857 17.9405 17.8146 21.4131C16.8619 23.2813 16.4746 24.9341 16.4774 27.1221C16.4801 29.353 16.9936 31.2936 18.0854 33.1981C18.3515 33.6623 18.5684 34.1023 18.5674 34.1761C18.5664 34.2498 18.3044 35.254 17.985 36.4075C17.6658 37.5612 17.4246 38.525 17.449 38.5496C17.4734 38.5741 18.5035 38.3273 19.738 38.001L21.9825 37.4079L22.9825 37.9306C24.8722 38.9182 26.6182 39.3467 28.7525 39.3467C30.8643 39.3467 32.6104 38.9326 34.3954 38.0082C39.9453 35.1341 42.47 28.5199 40.2623 22.6387C38.9671 19.1889 35.9871 16.3712 32.4567 15.2584C30.7335 14.7154 28.4233 14.5543 26.7136 14.8579ZM22.7892 20.372C22.3146 20.6621 21.6233 21.6697 21.3988 22.3985C20.7394 24.539 21.8501 27.0476 24.8048 30.0911C26.1242 31.4503 27.2213 32.2814 28.5668 32.9409C30.6062 33.9405 32.0287 34.3152 33.2218 34.1668C34.4574 34.0132 35.7665 33.1239 36.0716 32.2308C36.2596 31.6809 36.3633 30.737 36.253 30.5814C36.1632 30.455 33.8143 29.2616 33.0976 28.9783C32.8343 28.8743 32.5543 28.8139 32.4755 28.8443C32.3966 28.8746 31.9964 29.3137 31.5861 29.82C30.7166 30.8928 30.6988 30.8982 29.6355 30.4057C28.115 29.7013 26.5945 28.3932 25.5994 26.9335C25.0782 26.1689 24.9846 25.7774 25.2675 25.5448C25.6174 25.2571 26.2748 24.2546 26.2763 24.0062C26.2784 23.6804 25.031 20.6328 24.7891 20.3723C24.5298 20.0932 23.2455 20.0931 22.7892 20.372ZM3 28.0022C3 28.6208 3.0159 28.8739 3.03521 28.5646C3.05452 28.2552 3.05452 27.7491 3.03521 27.4399C3.0159 27.1307 3 27.3837 3 28.0022Z" fill="#25D366"/>
</svg>
